<svg xmlns="http://www.w3.org/2000/svg" xmlns:xlink="http://www.w3.org/1999/xlink" width="500" zoomAndPan="magnify" viewBox="0 0 375 374.999991" height="500" preserveAspectRatio="xMidYMid meet" version="1.0"><defs><g/><clipPath id="cacc749764"><path d="M 75.246094 28.226562 L 299.496094 28.226562 L 299.496094 316.976562 L 75.246094 316.976562 Z M 75.246094 28.226562 " clip-rule="nonzero"/></clipPath></defs><rect x="-37.5" width="450" fill="#ffffff" y="-37.499999" height="449.999989" fill-opacity="1"/><rect x="-37.5" width="450" fill="#545454" y="-37.499999" height="449.999989" fill-opacity="1"/><g clip-path="url(#cacc749764)"><path fill="#c1ff72" d="M 277.863281 316.648438 L 299.753906 316.648438 L 299.753906 198.773438 L 193.117188 198.773438 L 193.117188 28.25 L 123.164062 28.25 L 123.164062 82.824219 L 75.246094 82.824219 L 75.246094 268.730469 L 123.164062 268.730469 L 123.164062 316.648438 L 251.832031 316.648438 L 251.832031 246.839844 L 145.050781 246.839844 L 145.050781 50.136719 L 171.082031 50.136719 L 171.082031 220.8125 L 277.863281 220.8125 Z M 97.132812 246.839844 L 97.132812 104.710938 L 123.164062 104.710938 L 123.164062 246.839844 Z M 145.050781 294.761719 L 145.050781 268.730469 L 229.945312 268.730469 L 229.945312 294.761719 Z M 145.050781 294.761719 " fill-opacity="1" fill-rule="evenodd"/></g><g fill="#c1ff72" fill-opacity="1"><g transform="translate(70.580333, 356.352399)"><g><path d="M 5.125 -31.453125 L 5.125 -4.546875 L 19.9375 -4.546875 L 19.9375 0 L 0.578125 0 L 0.578125 -31.453125 Z M 5.125 -31.453125 "/></g></g></g><g fill="#c1ff72" fill-opacity="1"><g transform="translate(102.47981, 356.352399)"><g><path d="M 12.421875 -24.65625 L 8.453125 -13.546875 L 16.296875 -13.546875 Z M 21.828125 0 L 18.046875 -9.265625 L 6.75 -9.265625 C 6.144531 -7.828125 5.488281 -6.253906 4.78125 -4.546875 C 4.082031 -2.835938 3.476562 -1.320312 2.96875 0 L -1.9375 0 L 10.703125 -31.90625 L 14.046875 -31.90625 L 26.6875 0 Z M 21.828125 0 "/></g></g></g><g fill="#c1ff72" fill-opacity="1"><g transform="translate(139.687914, 356.352399)"><g><path d="M 5.265625 0 L 0.71875 0 L 0.71875 -31.546875 L 4.234375 -31.5 L 19.578125 -9.3125 L 19.578125 -31.5 L 24.078125 -31.5 L 24.078125 0 L 20.46875 0 L 5.265625 -22 Z M 5.265625 0 "/></g></g></g><g fill="#c1ff72" fill-opacity="1"><g transform="translate(176.896018, 356.352399)"><g><path d="M 13.1875 0.140625 L 8.640625 0.140625 L 8.640625 -26.90625 L -0.90625 -26.90625 L -0.90625 -31.5 L 22.6875 -31.5 L 22.6875 -26.90625 L 13.1875 -26.90625 Z M 13.1875 0.140625 "/></g></g></g><g fill="#c1ff72" fill-opacity="1"><g transform="translate(211.674748, 356.352399)"><g><path d="M 5.125 -13.453125 L 5.125 -4.546875 L 19.75 -4.546875 L 19.75 0 L 0.546875 0 L 0.546875 -31.453125 L 19.703125 -31.453125 L 19.703125 -26.90625 L 5.125 -26.90625 L 5.125 -18.046875 L 19.390625 -18.046875 L 19.390625 -13.453125 Z M 5.125 -13.453125 "/></g></g></g><g fill="#c1ff72" fill-opacity="1"><g transform="translate(243.484252, 356.352399)"><g><path d="M 6.9375 -13.8125 L 6.9375 -15.96875 L 12.234375 -15.96875 C 13.523438 -15.96875 14.585938 -16.238281 15.421875 -16.78125 C 16.265625 -17.320312 16.894531 -18.007812 17.3125 -18.84375 C 17.738281 -19.6875 17.953125 -20.5625 17.953125 -21.46875 C 17.953125 -22.363281 17.738281 -23.226562 17.3125 -24.0625 C 16.894531 -24.90625 16.265625 -25.585938 15.421875 -26.109375 C 14.585938 -26.640625 13.523438 -26.90625 12.234375 -26.90625 L 5.265625 -26.90625 L 5.265625 0 L 0.765625 0 L 0.765625 -31.5 L 12.234375 -31.5 C 14.515625 -31.5 16.410156 -31.007812 17.921875 -30.03125 C 19.441406 -29.0625 20.582031 -27.8125 21.34375 -26.28125 C 22.113281 -24.75 22.5 -23.144531 22.5 -21.46875 C 22.5 -20 22.195312 -18.582031 21.59375 -17.21875 C 21 -15.851562 20.09375 -14.695312 18.875 -13.75 C 17.664062 -12.800781 16.160156 -12.160156 14.359375 -11.828125 L 24.296875 0 L 18.40625 0 Z M 6.9375 -13.8125 "/></g></g></g><g fill="#c1ff72" fill-opacity="1"><g transform="translate(277.948063, 356.352399)"><g><path d="M 5.265625 0 L 0.71875 0 L 0.71875 -31.546875 L 4.234375 -31.5 L 19.578125 -9.3125 L 19.578125 -31.5 L 24.078125 -31.5 L 24.078125 0 L 20.46875 0 L 5.265625 -22 Z M 5.265625 0 "/></g></g></g></svg>