<svg xmlns="http://www.w3.org/2000/svg" xmlns:xlink="http://www.w3.org/1999/xlink" width="500" zoomAndPan="magnify" viewBox="0 0 375 374.999991" height="500" preserveAspectRatio="xMidYMid meet" version="1.0"><defs><clipPath id="5cb77198b7"><path d="M 58.402344 21.636719 L 316.402344 21.636719 L 316.402344 353.136719 L 58.402344 353.136719 Z M 58.402344 21.636719 " clip-rule="nonzero"/></clipPath></defs><g clip-path="url(#5cb77198b7)"><path fill="#c1ff72" d="M 291.417969 353.332031 L 316.589844 353.332031 L 316.589844 217.773438 L 193.960938 217.773438 L 193.960938 21.667969 L 113.511719 21.667969 L 113.511719 84.425781 L 58.402344 84.425781 L 58.402344 298.222656 L 113.511719 298.222656 L 113.511719 353.332031 L 261.484375 353.332031 L 261.484375 273.050781 L 138.683594 273.050781 L 138.683594 46.839844 L 168.617188 46.839844 L 168.617188 243.117188 L 291.417969 243.117188 Z M 83.574219 273.050781 L 83.574219 109.601562 L 113.511719 109.601562 L 113.511719 273.050781 Z M 138.683594 328.15625 L 138.683594 298.222656 L 236.3125 298.222656 L 236.3125 328.15625 Z M 138.683594 328.15625 " fill-opacity="1" fill-rule="evenodd"/></g></svg>